<svg width="56" height="21" viewBox="0 0 56 21" fill="none" xmlns="http://www.w3.org/2000/svg">
<g clip-path="url(#clip0_8004_253)">
<path fill-rule="evenodd" clip-rule="evenodd" d="M34.4239 15.7393C31.1482 18.6357 26.4156 20.1813 22.3226 20.1813C16.867 20.2149 11.5976 17.8026 7.54684 13.4171C7.24114 13.0871 7.51358 12.6312 7.88195 12.8891C12.0888 15.8284 17.2933 17.5965 22.6667 17.5965C26.5405 17.5765 30.3727 16.6375 33.943 14.8338C34.4955 14.5529 34.9662 15.2727 34.4188 15.7547" fill="white"/>
<path fill-rule="evenodd" clip-rule="evenodd" d="M35.785 13.8746C35.3655 13.2315 33.0196 13.5676 31.9644 13.7211C31.6459 13.7672 31.596 13.4326 31.8851 13.1901C33.7564 11.6122 36.8236 12.0681 37.1805 12.5945C37.5373 13.121 37.0871 16.8185 35.3322 18.5806C35.0623 18.8522 34.8052 18.7064 34.9255 18.3503C35.3194 17.1669 36.2045 14.5131 35.785 13.8746Z" fill="white"/>
<path fill-rule="evenodd" clip-rule="evenodd" d="M32.0433 2.04194V0.507057C32.042 0.45559 32.0496 0.404362 32.0654 0.356497C32.0812 0.308631 32.105 0.265129 32.1352 0.228649C32.1655 0.192169 32.2017 0.163474 32.2415 0.144312C32.2813 0.12515 32.324 0.115924 32.3669 0.117196H38.0945C38.1376 0.115313 38.1805 0.123972 38.2207 0.142645C38.2609 0.161317 38.2974 0.189609 38.3282 0.225801C38.3589 0.261993 38.3832 0.305325 38.3996 0.353152C38.4159 0.400979 38.424 0.452298 38.4233 0.503984V1.81938C38.4233 2.03887 38.2685 2.32742 37.9922 2.78328L35.0273 7.86681C36.1273 7.83611 37.2926 8.03411 38.2928 8.70793C38.383 8.76696 38.4585 8.85358 38.5118 8.95898C38.565 9.06439 38.594 9.18483 38.5959 9.30806V10.9442C38.5959 11.1683 38.3913 11.4293 38.1751 11.2927C37.2389 10.7155 36.2011 10.4157 35.1486 10.4183C34.096 10.421 33.0593 10.7261 32.1251 11.308C31.9243 11.4339 31.7171 11.176 31.7171 10.9504V9.39862C31.6983 9.03004 31.7723 8.6632 31.9294 8.3457L35.3689 2.42873H32.3771C32.3339 2.43081 32.2908 2.42232 32.2504 2.40376C32.21 2.3852 32.1732 2.35696 32.1422 2.32077C32.1112 2.28458 32.0867 2.2412 32.0701 2.19326C32.0535 2.14532 32.0453 2.09383 32.0458 2.04194" fill="white"/>
<path fill-rule="evenodd" clip-rule="evenodd" d="M11.149 11.6198H9.40432C9.32584 11.6155 9.25126 11.5775 9.1942 11.5127C9.13714 11.4479 9.1014 11.3606 9.09351 11.2668V0.534919C9.0945 0.482912 9.10403 0.431647 9.12154 0.384059C9.13905 0.33647 9.1642 0.293489 9.19556 0.25757C9.22692 0.22165 9.26387 0.193496 9.3043 0.174718C9.34473 0.155939 9.38784 0.146907 9.43118 0.148131H11.053C11.1336 0.151166 11.2103 0.189573 11.2688 0.256066C11.3273 0.322559 11.3634 0.412504 11.3702 0.508824V1.91631H11.4022C11.8243 0.561012 12.6225 -0.0698242 13.6956 -0.0698242C14.7687 -0.0698242 15.4684 0.561012 15.957 1.91631C16.3791 0.561012 17.3384 -0.0698242 18.3629 -0.0698242C19.0945 -0.0698242 19.8978 0.28934 20.3787 1.10283C20.9326 2.00534 20.82 3.31612 20.82 4.46728V11.233C20.818 11.3378 20.7815 11.4373 20.7184 11.5098C20.6553 11.5823 20.5709 11.6219 20.4836 11.6198H18.7415C18.6584 11.6155 18.5797 11.5732 18.5217 11.5016C18.4637 11.43 18.4307 11.3345 18.4294 11.2346V5.54477C18.4294 5.09352 18.4614 3.96384 18.3795 3.53561C18.2516 2.81268 17.859 2.61468 17.3563 2.61468C17.1296 2.62236 16.9098 2.71023 16.7246 2.86724C16.5394 3.02425 16.3969 3.24342 16.3151 3.49724C16.1361 4.03905 16.1527 4.94156 16.1527 5.55091V11.233C16.1519 11.2848 16.1425 11.3359 16.1252 11.3834C16.1079 11.4309 16.083 11.4738 16.0519 11.5097C16.0208 11.5457 15.9841 11.5739 15.9439 11.5928C15.9037 11.6116 15.8607 11.6208 15.8176 11.6198H14.0768C13.9935 11.6155 13.9147 11.5733 13.8564 11.5017C13.7982 11.4301 13.7649 11.3346 13.7634 11.2346V5.54477C13.7634 4.3491 13.9258 2.58705 12.6902 2.58705C11.4547 2.58705 11.4866 4.30305 11.4866 5.54477V11.233C11.4858 11.285 11.4764 11.3362 11.4591 11.3838C11.4417 11.4314 11.4167 11.4744 11.3854 11.5103C11.3541 11.5462 11.3173 11.5744 11.2769 11.5932C11.2366 11.612 11.1935 11.6211 11.1502 11.6198" fill="white"/>
<path fill-rule="evenodd" clip-rule="evenodd" d="M43.3496 -0.0788574C45.9372 -0.0788574 47.3352 2.58569 47.3352 5.97318C47.3352 9.24708 45.7901 11.8441 43.3496 11.8441C40.8132 11.8441 39.4318 9.17801 39.4318 5.85806C39.4318 2.53811 40.8298 -0.0788574 43.3496 -0.0788574ZM43.3675 2.11142C42.0884 2.11142 42.0002 4.21114 42.0002 5.52039C42.0002 6.82964 41.9848 9.6308 43.3496 9.6308C44.7144 9.6308 44.7655 7.37299 44.7655 5.99467C44.7655 5.09062 44.7336 4.00853 44.5097 3.15053C44.314 2.40458 43.9239 2.11142 43.3714 2.11142" fill="white"/>
<path fill-rule="evenodd" clip-rule="evenodd" d="M50.6883 11.62H48.9526C48.8694 11.6154 48.7908 11.573 48.7326 11.5015C48.6744 11.43 48.6411 11.3347 48.6392 11.2347V0.498259C48.649 0.400476 48.6887 0.31054 48.7506 0.245885C48.8126 0.181231 48.8923 0.14646 48.9743 0.148307H50.5898C50.6623 0.151748 50.7318 0.183643 50.7877 0.239098C50.8436 0.294554 50.8829 0.370504 50.8993 0.455283V2.09607H50.9313C51.4186 0.622585 52.1016 -0.0788574 53.304 -0.0788574C54.0855 -0.0788574 54.8491 0.258818 55.3377 1.18435C55.793 2.04235 55.793 3.48667 55.793 4.52732V11.2808C55.7812 11.3764 55.7408 11.4635 55.6794 11.5259C55.618 11.5883 55.5397 11.6218 55.4592 11.62H53.712C53.6358 11.6146 53.5634 11.5777 53.5073 11.5156C53.4511 11.4535 53.4145 11.37 53.4037 11.2793V5.44671C53.4037 4.27253 53.5176 2.55807 52.314 2.55807C52.0951 2.5695 51.8837 2.65637 51.705 2.80826C51.5262 2.96016 51.3877 3.17064 51.3061 3.41453C51.063 4.06993 51.0285 4.72378 51.0285 5.44671V11.2332C51.0258 11.3383 50.9887 11.4378 50.9253 11.5102C50.8618 11.5826 50.7771 11.6221 50.6896 11.62" fill="white"/>
<path fill-rule="evenodd" clip-rule="evenodd" d="M27.475 6.49332C27.475 7.30834 27.4903 7.98675 27.1488 8.71275C26.8712 9.30061 26.4325 9.66284 25.9426 9.66284C25.2737 9.66284 24.8823 9.04889 24.8823 8.14638C24.8823 6.36592 26.2138 6.04206 27.475 6.04206V6.49332ZM29.2298 11.586C29.1738 11.6443 29.104 11.6803 29.0302 11.6888C28.9564 11.6973 28.8822 11.678 28.818 11.6336C28.2398 11.058 28.1362 10.791 27.8203 10.2415C26.8636 11.4111 26.1857 11.761 24.9475 11.761C23.4804 11.761 22.3395 10.6743 22.3395 8.50247C22.3395 6.8049 23.1069 5.6522 24.1967 5.0843C25.1432 4.58699 26.4632 4.49643 27.4737 4.36136V4.09583C27.4737 3.597 27.5056 3.00913 27.2613 2.5809C27.0503 2.19411 26.6423 2.03756 26.2829 2.03756C25.619 2.03756 25.0294 2.44583 24.8823 3.29155C24.8735 3.38632 24.8393 3.47511 24.7849 3.54458C24.7304 3.61405 24.6587 3.66045 24.5804 3.67681L22.892 3.45732C22.8508 3.44998 22.8113 3.43265 22.7758 3.40638C22.7404 3.38012 22.7098 3.34547 22.6858 3.30454C22.6619 3.26361 22.6452 3.21727 22.6366 3.16833C22.6281 3.11939 22.628 3.06888 22.6362 3.01988C23.02 0.56407 24.8746 -0.181885 26.531 -0.181885C27.379 -0.181885 28.488 0.0897889 29.1556 0.858764C30.0037 1.80886 29.9231 3.0782 29.9231 4.45806V7.71508C29.9231 8.69587 30.262 9.1241 30.5818 9.65363C30.6918 9.84396 30.7174 10.0696 30.5818 10.2077C30.2262 10.5669 29.5931 11.2269 29.2465 11.5983L29.2298 11.586Z" fill="white"/>
<path fill-rule="evenodd" clip-rule="evenodd" d="M4.63418 6.49332C4.63418 7.30834 4.64953 7.98675 4.30802 8.71275C4.03046 9.30061 3.59174 9.66284 3.10186 9.66284C2.4329 9.66284 2.04151 9.04889 2.04151 8.14638C2.04151 6.36592 3.37429 6.04206 4.63418 6.04206V6.49332ZM6.39034 11.586C6.33452 11.6442 6.26497 11.6801 6.19139 11.6886C6.1178 11.6971 6.04383 11.6779 5.97976 11.6336C5.40034 11.058 5.29674 10.791 4.97953 10.2415C4.02406 11.4111 3.34616 11.761 2.10802 11.761C0.640927 11.761 -0.5 10.6743 -0.5 8.50247C-0.5 6.8049 0.267439 5.6522 1.35721 5.0843C2.30372 4.58699 3.62371 4.49643 4.63418 4.36136V4.09583C4.63418 3.597 4.66615 3.00913 4.42185 2.5809C4.2108 2.19411 3.80278 2.03756 3.44336 2.03756C2.77953 2.03756 2.1886 2.44583 2.04279 3.29155C2.0342 3.38641 2.00009 3.47533 1.94562 3.54484C1.89116 3.61436 1.8193 3.66068 1.74093 3.67681L0.0525583 3.45732C0.0113451 3.44998 -0.0281939 3.43265 -0.0636461 3.40638C-0.0990982 3.38012 -0.129721 3.34547 -0.153655 3.30454C-0.177588 3.26361 -0.19433 3.21727 -0.202857 3.16833C-0.211384 3.11939 -0.211519 3.06888 -0.203255 3.01988C0.180465 0.56407 2.03511 -0.181885 3.69278 -0.181885C4.53953 -0.181885 5.64848 0.0897889 6.31743 0.858764C7.16417 1.80886 7.08487 3.0782 7.08487 4.45806V7.71508C7.08487 8.69587 7.42255 9.1241 7.74231 9.65363C7.85231 9.84396 7.87789 10.0696 7.73592 10.2077C7.38034 10.5669 6.7472 11.2269 6.40057 11.5983L6.39034 11.586Z" fill="white"/>
</g>
<defs>
<clipPath id="clip0_8004_253">
<rect width="56" height="20.36" fill="white"/>
</clipPath>
</defs>
</svg>
