<svg width="60" height="24" viewBox="0 0 60 24" fill="none" xmlns="http://www.w3.org/2000/svg">
<g clip-path="url(#clip0_8004_287)">
<g clip-path="url(#clip1_8004_287)">
<path d="M8.25326 5.2417C4.02413 5.2417 0.5 7.03591 0.5 12.449C0.5 16.7373 2.86972 19.4378 8.36246 19.4378C14.8277 19.4378 15.2421 15.179 15.2421 15.179H12.1094C12.1094 15.179 11.4377 17.4722 8.17135 17.4722C5.51098 17.4722 3.59753 15.675 3.59753 13.156H15.5697V11.5753C15.5697 9.08328 13.9877 5.2417 8.25326 5.2417ZM8.14405 7.26191C10.6765 7.26191 12.4029 8.81332 12.4029 11.1385H3.66682C3.66682 8.67003 5.92025 7.26191 8.14405 7.26191Z" fill="white"/>
<path d="M15.5675 0V16.7193C15.5675 17.6684 15.4997 19.0009 15.4997 19.0009H18.4877C18.4877 19.0009 18.5949 18.0439 18.5949 17.1692C18.5949 17.1692 20.0712 19.4787 24.0851 19.4787C28.312 19.4787 31.1832 16.5441 31.1832 12.3397C31.1832 8.42839 28.5459 5.28259 24.092 5.28259C19.9211 5.28259 18.6251 7.53485 18.6251 7.53485V0H15.5675ZM23.3207 7.35058C26.1911 7.35058 28.0164 9.4809 28.0164 12.3397C28.0164 15.4052 25.9083 17.4107 23.3412 17.4107C20.2776 17.4107 18.6251 15.0187 18.6251 12.367C18.6251 9.89612 20.108 7.35058 23.3207 7.35058Z" fill="white"/>
<path d="M38.6088 5.2417C32.2464 5.2417 31.8383 8.72544 31.8383 9.28213H35.0052C35.0052 9.28213 35.1712 7.24826 38.3904 7.24826C40.4822 7.24826 42.1032 8.20574 42.1032 10.0465V10.7017H38.3904C33.4613 10.7017 30.8555 12.1437 30.8555 15.0698C30.8555 17.9495 33.2632 19.5163 36.5169 19.5163C40.9512 19.5163 42.3796 17.0661 42.3796 17.0661C42.3796 18.0406 42.4548 19.001 42.4548 19.001H45.27C45.27 19.001 45.1608 17.8106 45.1608 17.049V10.4663C45.1608 6.15005 41.6793 5.2417 38.6088 5.2417ZM42.1032 12.6674V13.541C42.1032 14.6804 41.4001 17.5131 37.2608 17.5131C34.9942 17.5131 34.0224 16.3819 34.0224 15.0698C34.0224 12.6827 37.2951 12.6674 42.1032 12.6674Z" fill="white"/>
<path d="M43.4556 5.78809H47.0182L52.1312 16.0315L57.2324 5.78809H60.4597L51.1679 24.0246H47.7826L50.4639 18.9409L43.4556 5.78809Z" fill="white"/>
</g>
</g>
<defs>
<clipPath id="clip0_8004_287">
<rect width="60" height="24" fill="white"/>
</clipPath>
<clipPath id="clip1_8004_287">
<rect width="60" height="24" fill="white" transform="translate(0.5)"/>
</clipPath>
</defs>
</svg>
