<svg width="218" height="172" viewBox="0 0 218 172" fill="none" xmlns="http://www.w3.org/2000/svg">
<g filter="url(#filter0_b_4001_2205)">
<rect y="0.110352" width="218" height="171.779" rx="20" fill="#DEDEDE" fill-opacity="0.5"/>
<path d="M24.104 34.1104L21.864 30.2184H20.646V34.1104H19.05V24.3804H22.41C23.1567 24.3804 23.7867 24.511 24.3 24.7724C24.8227 25.0337 25.21 25.3837 25.462 25.8224C25.7233 26.261 25.854 26.751 25.854 27.2924C25.854 27.927 25.6673 28.5057 25.294 29.0284C24.93 29.5417 24.3653 29.8917 23.6 30.0784L26.008 34.1104H24.104ZM20.646 28.9444H22.41C23.0073 28.9444 23.4553 28.795 23.754 28.4964C24.062 28.1977 24.216 27.7964 24.216 27.2924C24.216 26.7884 24.0667 26.3964 23.768 26.1164C23.4693 25.827 23.0167 25.6824 22.41 25.6824H20.646V28.9444ZM30.6117 25.6684V28.5244H33.9717V29.8264H30.6117V32.8084H34.3917V34.1104H29.0157V24.3664H34.3917V25.6684H30.6117ZM45.8635 24.3804L42.2095 34.1104H40.3615L36.6935 24.3804H38.4015L41.2855 32.4724L44.1835 24.3804H45.8635ZM49.9142 25.6684V28.5244H53.2742V29.8264H49.9142V32.8084H53.6942V34.1104H48.3182V24.3664H53.6942V25.6684H49.9142ZM64.774 34.1104H63.178L58.376 26.8444V34.1104H56.78V24.3664H58.376L63.178 31.6184V24.3664H64.774V34.1104ZM69.5718 24.3804V30.5824C69.5718 31.3197 69.7632 31.875 70.1458 32.2484C70.5378 32.6217 71.0792 32.8084 71.7698 32.8084C72.4698 32.8084 73.0112 32.6217 73.3938 32.2484C73.7858 31.875 73.9818 31.3197 73.9818 30.5824V24.3804H75.5778V30.5544C75.5778 31.3477 75.4052 32.0197 75.0598 32.5704C74.7145 33.121 74.2525 33.5317 73.6738 33.8024C73.0952 34.073 72.4558 34.2084 71.7558 34.2084C71.0558 34.2084 70.4165 34.073 69.8378 33.8024C69.2685 33.5317 68.8158 33.121 68.4798 32.5704C68.1438 32.0197 67.9758 31.3477 67.9758 30.5544V24.3804H69.5718ZM80.3719 25.6684V28.5244H83.7319V29.8264H80.3719V32.8084H84.1519V34.1104H78.7759V24.3664H84.1519V25.6684H80.3719ZM24.776 46.3804V47.6824H20.646V50.5524H23.866V51.8544H20.646V56.1104H19.05V46.3804H24.776ZM31.8131 56.2084C30.9077 56.2084 30.0724 55.9984 29.3071 55.5784C28.5511 55.149 27.9491 54.5564 27.5011 53.8004C27.0624 53.035 26.8431 52.1764 26.8431 51.2244C26.8431 50.2724 27.0624 49.4184 27.5011 48.6624C27.9491 47.9064 28.5511 47.3184 29.3071 46.8984C30.0724 46.469 30.9077 46.2544 31.8131 46.2544C32.7277 46.2544 33.5631 46.469 34.3191 46.8984C35.0844 47.3184 35.6864 47.9064 36.1251 48.6624C36.5637 49.4184 36.7831 50.2724 36.7831 51.2244C36.7831 52.1764 36.5637 53.035 36.1251 53.8004C35.6864 54.5564 35.0844 55.149 34.3191 55.5784C33.5631 55.9984 32.7277 56.2084 31.8131 56.2084ZM31.8131 54.8224C32.4571 54.8224 33.0311 54.6777 33.5351 54.3884C34.0391 54.0897 34.4311 53.6697 34.7111 53.1284C35.0004 52.5777 35.1451 51.943 35.1451 51.2244C35.1451 50.5057 35.0004 49.8757 34.7111 49.3344C34.4311 48.793 34.0391 48.3777 33.5351 48.0884C33.0311 47.799 32.4571 47.6544 31.8131 47.6544C31.1691 47.6544 30.5951 47.799 30.0911 48.0884C29.5871 48.3777 29.1904 48.793 28.9011 49.3344C28.6211 49.8757 28.4811 50.5057 28.4811 51.2244C28.4811 51.943 28.6211 52.5777 28.9011 53.1284C29.1904 53.6697 29.5871 54.0897 30.0911 54.3884C30.5951 54.6777 31.1691 54.8224 31.8131 54.8224ZM44.5276 56.1104L42.2876 52.2184H41.0696V56.1104H39.4736V46.3804H42.8336C43.5803 46.3804 44.2103 46.511 44.7236 46.7724C45.2463 47.0337 45.6336 47.3837 45.8856 47.8224C46.1469 48.261 46.2776 48.751 46.2776 49.2924C46.2776 49.927 46.0909 50.5057 45.7176 51.0284C45.3536 51.5417 44.7889 51.8917 44.0236 52.0784L46.4316 56.1104H44.5276ZM41.0696 50.9444H42.8336C43.4309 50.9444 43.8789 50.795 44.1776 50.4964C44.4856 50.1977 44.6396 49.7964 44.6396 49.2924C44.6396 48.7884 44.4903 48.3964 44.1916 48.1164C43.8929 47.827 43.4403 47.6824 42.8336 47.6824H41.0696V50.9444ZM51.0353 47.6684V50.5244H54.3953V51.8264H51.0353V54.8084H54.8153V56.1104H49.4393V46.3664H54.8153V47.6684H51.0353ZM57.3691 51.2244C57.3691 50.2724 57.5884 49.4184 58.0271 48.6624C58.4751 47.9064 59.0771 47.3184 59.8331 46.8984C60.5984 46.469 61.4338 46.2544 62.3391 46.2544C63.3751 46.2544 64.2944 46.511 65.0971 47.0244C65.9091 47.5284 66.4971 48.247 66.8611 49.1804H64.9431C64.6911 48.667 64.3411 48.2844 63.8931 48.0324C63.4451 47.7804 62.9271 47.6544 62.3391 47.6544C61.6951 47.6544 61.1211 47.799 60.6171 48.0884C60.1131 48.3777 59.7164 48.793 59.4271 49.3344C59.1471 49.8757 59.0071 50.5057 59.0071 51.2244C59.0071 51.943 59.1471 52.573 59.4271 53.1144C59.7164 53.6557 60.1131 54.0757 60.6171 54.3744C61.1211 54.6637 61.6951 54.8084 62.3391 54.8084C62.9271 54.8084 63.4451 54.6824 63.8931 54.4304C64.3411 54.1784 64.6911 53.7957 64.9431 53.2824H66.8611C66.4971 54.2157 65.9091 54.9344 65.0971 55.4384C64.2944 55.9424 63.3751 56.1944 62.3391 56.1944C61.4244 56.1944 60.5891 55.9844 59.8331 55.5644C59.0771 55.135 58.4751 54.5424 58.0271 53.7864C57.5884 53.0304 57.3691 52.1764 57.3691 51.2244ZM75.7152 54.1224H71.6412L70.9412 56.1104H69.2752L72.7612 46.3664H74.6092L78.0952 56.1104H76.4152L75.7152 54.1224ZM75.2672 52.8204L73.6852 48.2984L72.0892 52.8204H75.2672ZM83.9369 56.2084C83.2836 56.2084 82.6956 56.0964 82.1729 55.8724C81.6503 55.639 81.2396 55.3124 80.9409 54.8924C80.6423 54.4724 80.4929 53.9824 80.4929 53.4224H82.2009C82.2383 53.8424 82.4016 54.1877 82.6909 54.4584C82.9896 54.729 83.4049 54.8644 83.9369 54.8644C84.4876 54.8644 84.9169 54.7337 85.2249 54.4724C85.5329 54.2017 85.6869 53.8564 85.6869 53.4364C85.6869 53.1097 85.5889 52.8437 85.3929 52.6384C85.2063 52.433 84.9683 52.2744 84.6789 52.1624C84.3989 52.0504 84.0069 51.929 83.5029 51.7984C82.8683 51.6304 82.3503 51.4624 81.9489 51.2944C81.5569 51.117 81.2209 50.8464 80.9409 50.4824C80.6609 50.1184 80.5209 49.633 80.5209 49.0264C80.5209 48.4664 80.6609 47.9764 80.9409 47.5564C81.2209 47.1364 81.6129 46.8144 82.1169 46.5904C82.6209 46.3664 83.2043 46.2544 83.8669 46.2544C84.8096 46.2544 85.5796 46.4924 86.1769 46.9684C86.7836 47.435 87.1196 48.079 87.1849 48.9004H85.4209C85.3929 48.5457 85.2249 48.2424 84.9169 47.9904C84.6089 47.7384 84.2029 47.6124 83.6989 47.6124C83.2416 47.6124 82.8683 47.729 82.5789 47.9624C82.2896 48.1957 82.1449 48.5317 82.1449 48.9704C82.1449 49.269 82.2336 49.5164 82.4109 49.7124C82.5976 49.899 82.8309 50.0484 83.1109 50.1604C83.3909 50.2724 83.7736 50.3937 84.2589 50.5244C84.9029 50.7017 85.4256 50.879 85.8269 51.0564C86.2376 51.2337 86.5829 51.509 86.8629 51.8824C87.1523 52.2464 87.2969 52.7364 87.2969 53.3524C87.2969 53.847 87.1616 54.3137 86.8909 54.7524C86.6296 55.191 86.2423 55.5457 85.7289 55.8164C85.2249 56.0777 84.6276 56.2084 83.9369 56.2084ZM96.5862 46.3804V47.6824H93.9962V56.1104H92.4002V47.6824H89.7962V46.3804H96.5862ZM100.918 46.3804V56.1104H99.3225V46.3804H100.918ZM112.128 56.1104H110.532L105.73 48.8444V56.1104H104.134V46.3664H105.73L110.532 53.6184V46.3664H112.128V56.1104ZM122.386 49.1804C122.134 48.695 121.784 48.331 121.336 48.0884C120.888 47.8364 120.37 47.7104 119.782 47.7104C119.138 47.7104 118.564 47.855 118.06 48.1444C117.556 48.4337 117.159 48.8444 116.87 49.3764C116.59 49.9084 116.45 50.5244 116.45 51.2244C116.45 51.9244 116.59 52.545 116.87 53.0864C117.159 53.6184 117.556 54.029 118.06 54.3184C118.564 54.6077 119.138 54.7524 119.782 54.7524C120.65 54.7524 121.354 54.5097 121.896 54.0244C122.437 53.539 122.768 52.881 122.89 52.0504H119.236V50.7764H124.598V52.0224C124.495 52.7784 124.224 53.4737 123.786 54.1084C123.356 54.743 122.792 55.2517 122.092 55.6344C121.401 56.0077 120.631 56.1944 119.782 56.1944C118.867 56.1944 118.032 55.9844 117.276 55.5644C116.52 55.135 115.918 54.5424 115.47 53.7864C115.031 53.0304 114.812 52.1764 114.812 51.2244C114.812 50.2724 115.031 49.4184 115.47 48.6624C115.918 47.9064 116.52 47.3184 117.276 46.8984C118.041 46.469 118.876 46.2544 119.782 46.2544C120.818 46.2544 121.737 46.511 122.54 47.0244C123.352 47.5284 123.94 48.247 124.304 49.1804H122.386Z" fill="#56565D"/>
<path d="M18 117.663C22.0785 114.064 27.4679 111.518 33.3742 112.776C36.6313 113.554 40.3526 116.467 43.1595 117.032C45.5518 117.518 47.0641 116.415 48.5023 114.406C49.9397 112.354 50.9867 109.743 52.3041 107.565C54.8208 102.553 58.0307 98.2563 64.551 96.5098C71.5453 94.6362 76.4193 101.739 82.6811 100.599C89.7456 99.1456 94.9907 86.0477 102.256 84.9003C105.798 84.3378 112.209 89.7813 115.549 88.5708C122.607 86.3081 128.697 73.7191 136.024 81.2702C139.672 84.9553 140.556 90.7582 144.897 93.8648C151.411 97.4713 154.662 89.1987 155.887 84.9003C157.225 79.7124 163.764 69.3563 171.513 75.9441C174.618 78.6335 174.761 79.5901 178.055 81.7718C184.442 85.2259 191.622 68.1762 199.496 69.4688" stroke="#4C57FF" stroke-width="2" stroke-miterlimit="10" stroke-linecap="round"/>
<path opacity="0.24" d="M200 153.889H18V117.341C22.1126 113.769 27.5436 111.235 33.4969 112.487C36.7804 113.261 40.5282 116.155 43.3639 116.715C45.7768 117.194 47.3024 116.104 48.7534 114.108C50.2045 112.068 51.2575 109.475 52.5841 107.309C55.1214 102.33 58.3956 98.0712 64.9303 96.3273C71.9755 94.4471 76.895 101.52 83.2049 100.386C90.3274 98.9421 95.6091 85.9345 102.939 84.7928C106.513 84.233 111.645 89.3593 115.012 88.1514C122.126 85.9049 129.596 73.6856 136.976 81.1837C140.649 84.8444 141.544 90.6043 145.922 93.6904C152.489 97.2701 155.789 86.3101 157.025 82.0381C158.376 76.8822 162.703 69.3655 170.513 75.9061C173.639 78.5798 175.648 78.731 178.973 80.8964C186.242 84.7771 192.302 66.9318 200 68.1723V153.889Z" fill="url(#paint0_linear_4001_2205)"/>
</g>
<defs>
<filter id="filter0_b_4001_2205" x="-28.7878" y="-28.6775" width="275.576" height="229.354" filterUnits="userSpaceOnUse" color-interpolation-filters="sRGB">
<feFlood flood-opacity="0" result="BackgroundImageFix"/>
<feGaussianBlur in="BackgroundImageFix" stdDeviation="14.3939"/>
<feComposite in2="SourceAlpha" operator="in" result="effect1_backgroundBlur_4001_2205"/>
<feBlend mode="normal" in="SourceGraphic" in2="effect1_backgroundBlur_4001_2205" result="shape"/>
</filter>
<linearGradient id="paint0_linear_4001_2205" x1="108.969" y1="87.1084" x2="108.994" y2="153.889" gradientUnits="userSpaceOnUse">
<stop stop-color="#4C57FF"/>
<stop offset="1" stop-color="#4C57FF" stop-opacity="0.11"/>
</linearGradient>
</defs>
</svg>
