<svg width="230" height="110" viewBox="0 0 230 110" fill="none" xmlns="http://www.w3.org/2000/svg">
<path d="M57.1707 9.38981V10.7958H51.4137V15.2608H56.0877V16.6668H51.4137V22.6328H49.6847V9.38981H57.1707ZM68.4929 12.2208V22.6328H66.7639V21.0938C66.4346 21.6258 65.9722 22.0438 65.3769 22.3478C64.7942 22.6391 64.1482 22.7848 63.4389 22.7848C62.6282 22.7848 61.8999 22.6201 61.2539 22.2908C60.6079 21.9488 60.0949 21.4421 59.7149 20.7708C59.3476 20.0995 59.1639 19.2825 59.1639 18.3198V12.2208H60.8739V18.0918C60.8739 19.1178 61.1336 19.9095 61.6529 20.4668C62.1722 21.0115 62.8816 21.2838 63.7809 21.2838C64.7056 21.2838 65.4339 20.9988 65.9659 20.4288C66.4979 19.8588 66.7639 19.0291 66.7639 17.9398V12.2208H68.4929ZM76.4852 12.0308C77.7519 12.0308 78.7779 12.4171 79.5632 13.1898C80.3486 13.9498 80.7412 15.0518 80.7412 16.4958V22.6328H79.0312V16.7428C79.0312 15.7041 78.7716 14.9125 78.2522 14.3678C77.7329 13.8105 77.0236 13.5318 76.1242 13.5318C75.2122 13.5318 74.4839 13.8168 73.9392 14.3868C73.4072 14.9568 73.1412 15.7865 73.1412 16.8758V22.6328H71.4122V12.2208H73.1412V13.7028C73.4832 13.1708 73.9456 12.7591 74.5282 12.4678C75.1236 12.1765 75.7759 12.0308 76.4852 12.0308ZM82.9195 17.3888C82.9195 16.3248 83.1349 15.3938 83.5655 14.5958C83.9962 13.7851 84.5852 13.1581 85.3325 12.7148C86.0925 12.2715 86.9412 12.0498 87.8785 12.0498C88.6892 12.0498 89.4429 12.2398 90.1395 12.6198C90.8362 12.9871 91.3682 13.4748 91.7355 14.0828V8.57281H93.4835V22.6328H91.7355V20.6758C91.3935 21.2965 90.8869 21.8095 90.2155 22.2148C89.5442 22.6075 88.7589 22.8038 87.8595 22.8038C86.9349 22.8038 86.0925 22.5758 85.3325 22.1198C84.5852 21.6638 83.9962 21.0241 83.5655 20.2008C83.1349 19.3775 82.9195 18.4401 82.9195 17.3888ZM91.7355 17.4078C91.7355 16.6225 91.5772 15.9385 91.2605 15.3558C90.9439 14.7731 90.5132 14.3298 89.9685 14.0258C89.4365 13.7091 88.8475 13.5508 88.2015 13.5508C87.5555 13.5508 86.9665 13.7028 86.4345 14.0068C85.9025 14.3108 85.4782 14.7541 85.1615 15.3368C84.8449 15.9195 84.6865 16.6035 84.6865 17.3888C84.6865 18.1868 84.8449 18.8835 85.1615 19.4788C85.4782 20.0615 85.9025 20.5111 86.4345 20.8278C86.9665 21.1318 87.5555 21.2838 88.2015 21.2838C88.8475 21.2838 89.4365 21.1318 89.9685 20.8278C90.5132 20.5111 90.9439 20.0615 91.2605 19.4788C91.5772 18.8835 91.7355 18.1931 91.7355 17.4078ZM97.2984 10.5298C96.969 10.5298 96.6904 10.4158 96.4624 10.1878C96.2344 9.95981 96.1204 9.68114 96.1204 9.35181C96.1204 9.02248 96.2344 8.74381 96.4624 8.51581C96.6904 8.28781 96.969 8.17381 97.2984 8.17381C97.615 8.17381 97.881 8.28781 98.0964 8.51581C98.3244 8.74381 98.4384 9.02248 98.4384 9.35181C98.4384 9.68114 98.3244 9.95981 98.0964 10.1878C97.881 10.4158 97.615 10.5298 97.2984 10.5298ZM98.1344 12.2208V22.6328H96.4054V12.2208H98.1344ZM106.154 12.0308C107.421 12.0308 108.447 12.4171 109.232 13.1898C110.017 13.9498 110.41 15.0518 110.41 16.4958V22.6328H108.7V16.7428C108.7 15.7041 108.44 14.9125 107.921 14.3678C107.402 13.8105 106.692 13.5318 105.793 13.5318C104.881 13.5318 104.153 13.8168 103.608 14.3868C103.076 14.9568 102.81 15.7865 102.81 16.8758V22.6328H101.081V12.2208H102.81V13.7028C103.152 13.1708 103.614 12.7591 104.197 12.4678C104.792 12.1765 105.445 12.0308 106.154 12.0308ZM117.528 12.0498C118.428 12.0498 119.213 12.2461 119.884 12.6388C120.568 13.0315 121.075 13.5255 121.404 14.1208V12.2208H123.152V22.8608C123.152 23.8108 122.95 24.6531 122.544 25.3878C122.139 26.1351 121.556 26.7178 120.796 27.1358C120.049 27.5538 119.175 27.7628 118.174 27.7628C116.806 27.7628 115.666 27.4398 114.754 26.7938C113.842 26.1478 113.304 25.2675 113.139 24.1528H114.849C115.039 24.7861 115.432 25.2928 116.027 25.6728C116.623 26.0655 117.338 26.2618 118.174 26.2618C119.124 26.2618 119.897 25.9641 120.492 25.3688C121.1 24.7735 121.404 23.9375 121.404 22.8608V20.6758C121.062 21.2838 120.556 21.7905 119.884 22.1958C119.213 22.6011 118.428 22.8038 117.528 22.8038C116.604 22.8038 115.761 22.5758 115.001 22.1198C114.254 21.6638 113.665 21.0241 113.234 20.2008C112.804 19.3775 112.588 18.4401 112.588 17.3888C112.588 16.3248 112.804 15.3938 113.234 14.5958C113.665 13.7851 114.254 13.1581 115.001 12.7148C115.761 12.2715 116.604 12.0498 117.528 12.0498ZM121.404 17.4078C121.404 16.6225 121.246 15.9385 120.929 15.3558C120.613 14.7731 120.182 14.3298 119.637 14.0258C119.105 13.7091 118.516 13.5508 117.87 13.5508C117.224 13.5508 116.635 13.7028 116.103 14.0068C115.571 14.3108 115.147 14.7541 114.83 15.3368C114.514 15.9195 114.355 16.6035 114.355 17.3888C114.355 18.1868 114.514 18.8835 114.83 19.4788C115.147 20.0615 115.571 20.5111 116.103 20.8278C116.635 21.1318 117.224 21.2838 117.87 21.2838C118.516 21.2838 119.105 21.1318 119.637 20.8278C120.182 20.5111 120.613 20.0615 120.929 19.4788C121.246 18.8835 121.404 18.1931 121.404 17.4078ZM135.434 12.0498C136.333 12.0498 137.118 12.2461 137.79 12.6388C138.474 13.0315 138.98 13.5255 139.31 14.1208V12.2208H141.058V22.8608C141.058 23.8108 140.855 24.6531 140.45 25.3878C140.044 26.1351 139.462 26.7178 138.702 27.1358C137.954 27.5538 137.08 27.7628 136.08 27.7628C134.712 27.7628 133.572 27.4398 132.66 26.7938C131.748 26.1478 131.209 25.2675 131.045 24.1528H132.755C132.945 24.7861 133.337 25.2928 133.933 25.6728C134.528 26.0655 135.244 26.2618 136.08 26.2618C137.03 26.2618 137.802 25.9641 138.398 25.3688C139.006 24.7735 139.31 23.9375 139.31 22.8608V20.6758C138.968 21.2838 138.461 21.7905 137.79 22.1958C137.118 22.6011 136.333 22.8038 135.434 22.8038C134.509 22.8038 133.667 22.5758 132.907 22.1198C132.159 21.6638 131.57 21.0241 131.14 20.2008C130.709 19.3775 130.494 18.4401 130.494 17.3888C130.494 16.3248 130.709 15.3938 131.14 14.5958C131.57 13.7851 132.159 13.1581 132.907 12.7148C133.667 12.2715 134.509 12.0498 135.434 12.0498ZM139.31 17.4078C139.31 16.6225 139.151 15.9385 138.835 15.3558C138.518 14.7731 138.087 14.3298 137.543 14.0258C137.011 13.7091 136.422 13.5508 135.776 13.5508C135.13 13.5508 134.541 13.7028 134.009 14.0068C133.477 14.3108 133.052 14.7541 132.736 15.3368C132.419 15.9195 132.261 16.6035 132.261 17.3888C132.261 18.1868 132.419 18.8835 132.736 19.4788C133.052 20.0615 133.477 20.5111 134.009 20.8278C134.541 21.1318 135.13 21.2838 135.776 21.2838C136.422 21.2838 137.011 21.1318 137.543 20.8278C138.087 20.5111 138.518 20.0615 138.835 19.4788C139.151 18.8835 139.31 18.1931 139.31 17.4078ZM144.873 10.5298C144.543 10.5298 144.265 10.4158 144.037 10.1878C143.809 9.95981 143.695 9.68114 143.695 9.35181C143.695 9.02248 143.809 8.74381 144.037 8.51581C144.265 8.28781 144.543 8.17381 144.873 8.17381C145.189 8.17381 145.455 8.28781 145.671 8.51581C145.899 8.74381 146.013 9.02248 146.013 9.35181C146.013 9.68114 145.899 9.95981 145.671 10.1878C145.455 10.4158 145.189 10.5298 144.873 10.5298ZM145.709 12.2208V22.6328H143.98V12.2208H145.709ZM152.531 21.0368L155.761 12.2208H157.604L153.519 22.6328H151.505L147.42 12.2208H149.282L152.531 21.0368ZM168.806 17.0278C168.806 17.3571 168.787 17.7055 168.749 18.0728H160.427C160.49 19.0988 160.838 19.9031 161.472 20.4858C162.118 21.0558 162.897 21.3408 163.809 21.3408C164.556 21.3408 165.177 21.1698 165.671 20.8278C166.177 20.4731 166.532 20.0045 166.735 19.4218H168.597C168.318 20.4225 167.761 21.2395 166.925 21.8728C166.089 22.4935 165.05 22.8038 163.809 22.8038C162.821 22.8038 161.934 22.5821 161.149 22.1388C160.376 21.6955 159.768 21.0685 159.325 20.2578C158.881 19.4345 158.66 18.4845 158.66 17.4078C158.66 16.3311 158.875 15.3875 159.306 14.5768C159.736 13.7661 160.338 13.1455 161.111 12.7148C161.896 12.2715 162.795 12.0498 163.809 12.0498C164.797 12.0498 165.671 12.2651 166.431 12.6958C167.191 13.1265 167.773 13.7218 168.179 14.4818C168.597 15.2291 168.806 16.0778 168.806 17.0278ZM167.02 16.6668C167.02 16.0081 166.874 15.4445 166.583 14.9758C166.291 14.4945 165.892 14.1335 165.386 13.8928C164.892 13.6395 164.341 13.5128 163.733 13.5128C162.859 13.5128 162.111 13.7915 161.491 14.3488C160.883 14.9061 160.534 15.6788 160.446 16.6668H167.02ZM176.161 12.0308C177.428 12.0308 178.454 12.4171 179.239 13.1898C180.024 13.9498 180.417 15.0518 180.417 16.4958V22.6328H178.707V16.7428C178.707 15.7041 178.447 14.9125 177.928 14.3678C177.409 13.8105 176.699 13.5318 175.8 13.5318C174.888 13.5318 174.16 13.8168 173.615 14.3868C173.083 14.9568 172.817 15.7865 172.817 16.8758V22.6328H171.088V12.2208H172.817V13.7028C173.159 13.1708 173.621 12.7591 174.204 12.4678C174.799 12.1765 175.452 12.0308 176.161 12.0308Z" fill="white"/>
<path d="M35.0623 91.1828V87.1328C32.5123 86.6828 30.6623 85.8828 29.7623 85.8828C29.0123 85.8828 28.8623 86.3328 28.4623 87.3828H27.5623L27.0623 76.2828H28.1623C29.4623 80.8328 31.4623 84.2828 35.0623 85.5328V72.1328C30.4123 70.5828 27.6123 68.1328 27.6123 63.0328C27.6123 58.7328 30.0623 54.5328 35.0623 53.3828V49.1328H36.6123V53.1328C36.9623 53.1328 37.3123 53.0828 37.7123 53.0828C38.3623 53.0828 38.9623 53.1328 39.5623 53.2328V49.1328H41.1123V53.4828C42.9623 53.9328 44.2123 54.6328 45.2123 54.6328C45.9123 54.6328 46.1123 54.2828 46.4623 53.6328H47.2123L47.4623 63.0328H46.4123C45.2623 59.1328 43.7623 56.3328 41.1123 55.1328V66.8328C45.4623 68.2828 49.2623 70.6328 49.2623 76.6828C49.2623 81.8828 46.3123 85.9828 41.1123 87.0828V91.1828H39.5623V87.3328C39.1123 87.3828 38.6123 87.3828 38.1623 87.3828C37.6123 87.3828 37.1123 87.3828 36.6123 87.3328V91.1828H35.0623ZM45.9623 79.5328C45.9623 76.6828 44.2123 75.1828 41.1123 73.9828V85.5828C44.0623 84.7328 45.9623 82.5828 45.9623 79.5328ZM38.2123 85.9828C38.6623 85.9828 39.1123 85.9828 39.5623 85.9328V73.4328C38.6623 73.1328 37.6623 72.8828 36.6123 72.6328V85.8828C37.1123 85.9328 37.6123 85.9828 38.2123 85.9828ZM36.6123 65.5328L39.5623 66.3828V54.6828C38.9623 54.5328 38.3623 54.4828 37.7123 54.4828C37.3123 54.4828 36.9623 54.5328 36.6123 54.5328V65.5328ZM31.0623 59.8328C31.0623 62.5328 32.6123 63.9328 35.0623 64.9828V54.8328C32.4623 55.5328 31.0623 57.3828 31.0623 59.8328ZM61.8338 87.6328V86.1828H66.5338V78.6828H52.5838V77.1828L67.2338 52.6328H72.7838V77.0328H77.2838V73.1328H78.6838V82.3828H77.2838V78.6828H72.7338V86.1828H76.2338V87.6328H61.8338ZM54.5338 77.0328H66.5338V56.8828L54.5338 77.0328ZM91.7135 67.8828C89.2635 67.8828 87.0135 68.7828 84.9135 70.0828L83.9635 69.6328V53.1828L84.7635 52.5828C88.9135 53.1828 97.9635 54.2328 99.4135 54.2328C100.563 54.2328 101.013 53.6328 101.413 52.1328L102.463 52.2828C101.563 58.4328 100.763 59.8828 98.8135 59.8828C97.7135 59.8828 96.3135 59.4828 94.6635 58.9328L85.7135 56.1828L85.4635 67.9828C87.6635 66.9328 90.1635 66.1828 93.1135 66.1828C101.263 66.1828 104.063 71.4328 104.063 76.6328C104.063 83.8328 98.7135 88.1328 91.0135 88.1328C86.0635 88.1328 81.4635 86.1828 81.4635 81.1828C81.4635 78.9328 82.5635 77.2828 84.8635 77.2828C86.7635 77.2828 88.1135 78.4328 88.1135 80.3328C88.1135 81.0828 87.9635 81.9328 87.7135 82.6328H86.1635C85.9635 83.0328 85.8635 83.3828 85.8635 83.7328C85.8635 85.3828 87.9635 86.5828 90.8135 86.5828C95.5635 86.5828 97.3635 83.1328 97.3635 76.2328C97.3635 70.4828 96.0135 67.8828 91.7135 67.8828ZM107.835 70.0828C107.835 57.0328 113.835 52.0828 121.085 52.0828C128.435 52.0828 134.285 56.9328 134.285 70.0828C134.285 83.2328 128.285 88.1328 121.085 88.1328C112.085 88.1328 107.835 80.5328 107.835 70.0828ZM114.535 70.1828C114.535 82.2828 116.035 86.5828 121.085 86.5828C126.235 86.5828 127.635 82.2328 127.635 70.2328C127.635 58.1828 125.985 53.6328 121.085 53.6328C116.285 53.6328 114.535 58.2828 114.535 70.1828ZM165.324 52.6328H176.624V54.0828H173.124V86.1828H176.624V87.6328H163.274V86.1828H166.774V54.5828H166.574L156.674 87.6328H153.874L143.324 54.5328H143.124V86.1828H146.624V87.6328H137.874V86.1828H141.374V54.0828H137.874V52.6328H149.374L157.524 78.8828L165.324 52.6328ZM203.747 72.6828H193.247V83.0328H191.247V72.6828H181.047V70.8828H191.247V61.1328H193.247V70.8828H203.747V72.6828Z" fill="white"/>
</svg>
