<svg width="51" height="32" viewBox="0 0 51 32" fill="none" xmlns="http://www.w3.org/2000/svg">
<path d="M32.683 8.66553H29.2015C28.8289 8.66553 28.5256 8.9476 28.5256 9.29423V11.3589C28.5256 11.7055 28.8289 11.9876 29.2015 11.9876H29.7879V22.3624C29.7879 22.709 30.0911 22.9911 30.4637 22.9911H32.683C33.0556 22.9911 33.3589 22.709 33.3589 22.3624V9.29397C33.3589 8.9476 33.0556 8.66553 32.683 8.66553Z" fill="white"/>
<path d="M0.984924 16.0861C0.984924 20.0151 4.42124 23.2116 8.64495 23.2116C12.8687 23.2116 16.305 20.0151 16.305 16.0861C16.305 13.5972 14.9015 11.2863 12.6252 9.9982C13.9819 8.92398 14.7547 7.36479 14.7547 5.68339C14.755 2.54963 12.0141 0 8.64495 0C5.27584 0 2.53522 2.54963 2.53522 5.68339C2.53522 7.36479 3.30802 8.92372 4.6647 9.9982C2.38842 11.2863 0.984924 13.5975 0.984924 16.0861ZM8.64495 8.27017C7.11174 8.27017 5.8644 7.10987 5.8644 5.68365C5.8644 4.25742 7.11174 3.09712 8.64495 3.09712C10.1782 3.09712 11.4255 4.25742 11.4255 5.68365C11.4255 7.10987 10.1782 8.27017 8.64495 8.27017ZM4.3141 16.0861C4.3141 13.8647 6.25686 12.0575 8.64495 12.0575C11.033 12.0575 12.9758 13.8647 12.9758 16.0861C12.9758 18.3076 11.033 20.1145 8.64495 20.1145C6.25713 20.1148 4.3141 18.3076 4.3141 16.0861Z" fill="white"/>
<path d="M50.3088 8.89233H48.3313C47.9587 8.89233 47.6555 9.1744 47.6555 9.52103V10.3511C46.3809 9.5423 44.8562 9.09985 43.3246 9.09985C39.1009 9.09985 35.6646 12.2964 35.6646 16.2254C35.6646 20.1543 39.1009 23.3509 43.3246 23.3509C44.8559 23.3509 46.3806 22.9084 47.6555 22.0996V24.2711C47.6555 25.3691 47.1694 26.4434 46.3219 27.2183C45.4872 27.9815 44.3954 28.3932 43.2491 28.3735C40.9026 28.3361 38.9937 26.5292 38.9937 24.3457V24.2568C38.9937 23.9101 38.6905 23.6281 38.3179 23.6281H36.3404C35.9678 23.6281 35.6646 23.9101 35.6646 24.2568C35.6646 28.197 39.067 31.433 43.2491 31.4709C43.2748 31.4712 43.2998 31.4712 43.3254 31.4712C45.3547 31.4712 47.2652 30.7395 48.7122 29.4065C50.1777 28.0564 50.985 26.2592 50.985 24.3457V9.52103C50.9847 9.1744 50.6817 8.89233 50.3088 8.89233ZM47.6555 16.2254C47.6555 18.4468 45.7127 20.2537 43.3246 20.2537C40.9365 20.2537 38.9937 18.4465 38.9937 16.2254C38.9937 14.0042 40.9365 12.1967 43.3246 12.1967C45.7127 12.1967 47.6555 14.0042 47.6555 16.2254Z" fill="white"/>
<path d="M32.0703 7.18862C33.2684 6.727 33.8373 5.44937 33.341 4.33494C32.8448 3.22052 31.4713 2.69131 30.2732 3.15293C29.0752 3.61455 28.5063 4.89219 29.0025 6.00661C29.4988 7.12104 30.8723 7.65024 32.0703 7.18862Z" fill="white"/>
<path d="M23.4052 6.09654C23.4055 4.21814 24.5658 3.83282 26.1155 3.83282C26.3777 3.83282 26.5901 3.6353 26.5901 3.3914V0.956801C26.5901 0.712905 26.3777 0.515381 26.1155 0.515381C22.0301 0.515381 19.8342 2.44528 19.8342 6.09654L19.8339 8.84421H18.4057C18.0559 8.84421 17.7722 9.10809 17.7722 9.43345V11.577C17.7722 11.9024 18.0559 12.1663 18.4057 12.1663H19.8339V22.4732C19.8339 22.7511 20.076 22.9763 20.3749 22.9763H22.8638C23.1626 22.9763 23.4047 22.7511 23.4047 22.4732V12.1663H25.9754C26.3251 12.1663 26.6088 11.9024 26.6088 11.577V9.43345C26.6088 9.10809 26.3251 8.84421 25.9754 8.84421H23.4047L23.4052 6.09654Z" fill="white"/>
</svg>
