<svg width="85" height="24" viewBox="0 0 85 24" fill="none" xmlns="http://www.w3.org/2000/svg">
<g clip-path="url(#clip0_8004_266)">
<g clip-path="url(#clip1_8004_266)">
<path d="M10.9825 0.841263C11.1504 0.841263 11.2343 0.925468 11.4021 1.00967C10.3951 1.4307 9.38811 2.52538 8.88462 4.88314L7.03846 5.38837C7.62587 3.70426 8.8007 0.841263 10.9825 0.841263ZM11.9056 1.68332C12.0734 2.18855 12.2413 2.77799 12.2413 3.70426C12.2413 3.78846 12.2413 3.78846 12.2413 3.87267L9.80769 4.54631C10.3112 2.77799 11.1504 2.02014 11.9056 1.68332ZM14.0874 3.19902L12.9965 3.53584C12.9965 3.45164 12.9965 3.36743 12.9965 3.28323C12.9965 2.52538 12.9126 1.93594 12.7448 1.4307C13.3322 1.59911 13.8357 2.35696 14.0874 3.19902ZM19.542 4.54631C19.542 4.46211 19.458 4.3779 19.3741 4.3779C19.2063 4.3779 17.4441 4.20949 17.4441 4.20949C17.4441 4.20949 16.1853 2.9464 16.0175 2.8622C15.8497 2.69379 15.5979 2.77799 15.514 2.77799C15.514 2.77799 15.2622 2.8622 14.8427 3.03061C14.4231 1.85173 13.6678 0.757057 12.4091 0.757057H12.3252C11.9895 0.251823 11.486 0.0834116 11.0664 0.0834116C8.04545 -0.000794064 6.61888 3.78846 6.11539 5.72519C5.44406 5.8936 4.77273 6.14622 4.01748 6.39884C3.34615 6.56725 3.34615 6.65145 3.26224 7.24089C3.17832 7.66192 1.5 20.9664 1.5 20.9664L14.8427 23.4926L22.0594 21.8927C22.0594 21.8927 19.542 4.71472 19.542 4.54631Z" fill="white"/>
<path d="M19.2903 4.37798C19.2064 4.37798 17.4442 4.20957 17.4442 4.20957C17.4442 4.20957 16.1854 2.94649 16.0176 2.86228C15.9337 2.77808 15.9337 2.77808 15.8498 2.77808L14.8428 23.4927L22.0596 21.8928C22.0596 21.8928 19.5421 4.71481 19.5421 4.5464C19.5421 4.46219 19.3742 4.37798 19.2903 4.37798Z" fill="#333645"/>
<path d="M12.4092 8.41998L11.4861 11.1146C11.4861 11.1146 10.7309 10.6935 9.72386 10.6935C8.29729 10.6935 8.21337 11.5356 8.21337 11.7882C8.21337 12.9671 11.4022 13.4723 11.4022 16.3353C11.4022 18.6089 9.97561 20.0404 8.04554 20.0404C5.77981 20.0404 4.60498 18.6089 4.60498 18.6089L5.19239 16.5879C5.19239 16.5879 6.36722 17.5984 7.37421 17.5984C8.04554 17.5984 8.29729 17.0932 8.29729 16.6721C8.29729 15.0722 5.69589 14.988 5.69589 12.3776C5.69589 10.1883 7.2903 8.08316 10.3952 8.08316C11.8218 7.99895 12.4092 8.41998 12.4092 8.41998Z" fill="#333645"/>
<path d="M30.5349 13.388C29.7797 12.967 29.444 12.6302 29.444 12.2091C29.444 11.6197 29.9475 11.2829 30.7866 11.2829C31.7097 11.2829 32.5489 11.7039 32.5489 11.7039L33.2202 9.68296C33.2202 9.68296 32.6328 9.17772 30.8706 9.17772C28.3531 9.17772 26.6748 10.6092 26.6748 12.6302C26.6748 13.809 27.5139 14.6511 28.5209 15.2405C29.3601 15.7458 29.6957 16.0826 29.6957 16.5878C29.6957 17.0931 29.2762 17.5983 28.437 17.5983C27.2622 17.5983 26.0873 17.0089 26.0873 17.0089L25.416 19.0298C25.416 19.0298 26.423 19.7034 28.1852 19.7034C30.7027 19.7034 32.5489 18.4403 32.5489 16.1668C32.5489 14.9037 31.6258 13.9774 30.5349 13.388ZM40.6887 9.09352C39.43 9.09352 38.423 9.68296 37.6678 10.6092L38.7587 4.88323H35.9055L33.1363 19.4508H35.9894L36.9125 14.4827C37.2482 12.6302 38.2552 11.4513 39.1783 11.4513C39.8496 11.4513 40.1013 11.8723 40.1013 12.5459C40.1013 12.967 40.1013 13.388 40.0174 13.809L38.9265 19.535H41.7797L42.8706 13.6406C42.9545 13.0512 43.0384 12.2933 43.0384 11.7881C43.0384 10.104 42.1992 9.09352 40.6887 9.09352ZM47.9894 17.4299C46.9825 17.4299 46.6468 16.5878 46.6468 15.5774C46.6468 13.9774 47.4859 11.2829 48.9964 11.2829C50.0034 11.2829 50.3391 12.1249 50.3391 12.967C50.3391 14.8195 49.4999 17.4299 47.9894 17.4299ZM49.416 9.09352C45.9755 9.09352 43.7097 12.2091 43.7097 15.6616C43.7097 17.8509 45.0524 19.6192 47.6538 19.6192C51.0104 19.6192 53.2762 16.5878 53.2762 13.0512C53.2762 11.0302 52.1013 9.09352 49.416 9.09352ZM57.8076 17.5141C57.0524 17.5141 56.6328 17.0931 56.6328 17.0931L57.1363 14.3985C57.472 12.6302 58.395 11.4513 59.402 11.4513C60.2412 11.4513 60.5769 12.2933 60.5769 13.0512C60.4929 14.9037 59.402 17.5141 57.8076 17.5141ZM60.5769 9.09352C58.6468 9.09352 57.5559 10.7776 57.5559 10.7776L57.7237 9.26193H55.2062C55.1223 10.2724 54.8706 11.8723 54.6188 13.0512L52.6048 23.4927H55.458L56.2132 19.2824H56.2971C56.2971 19.2824 56.8846 19.6192 57.9755 19.6192C61.3321 19.6192 63.5139 16.1668 63.5139 12.7144C63.5139 10.8618 62.6748 9.09352 60.5769 9.09352ZM67.5419 5.05164C66.6188 5.05164 65.9475 5.80949 65.9475 6.73576C65.9475 7.57781 66.451 8.16725 67.2901 8.16725C68.2132 8.16725 68.9685 7.57781 68.9685 6.48314C68.9685 5.64108 68.381 5.05164 67.5419 5.05164ZM63.5978 19.4508H66.451L68.381 9.34613H65.5279L63.5978 19.4508ZM75.5978 9.34613H73.5839L73.6678 8.8409C73.8356 7.83043 74.423 6.98837 75.3461 6.98837C75.8496 6.98837 76.2692 7.15679 76.2692 7.15679L76.8566 4.88323C76.8566 4.88323 76.3531 4.63062 75.3461 4.63062C74.3391 4.63062 73.3321 4.88323 72.5769 5.55688C71.5699 6.39893 71.1503 7.57781 70.8985 8.75669L70.8146 9.26193H69.472L69.0524 11.4513H70.395L68.8846 19.4508H71.7377L73.2482 11.4513H75.1783L75.5978 9.34613ZM82.395 9.34613C82.395 9.34613 80.6328 13.809 79.7936 16.251C79.7097 15.4931 79.1223 9.34613 79.1223 9.34613H76.1013L77.7797 18.6088C77.7797 18.7772 77.7797 18.9456 77.6957 19.114C77.3601 19.7876 76.7727 20.3771 76.1852 20.7981C75.6818 21.2191 75.0104 21.4718 74.5908 21.6402L75.3461 24.0821C75.9335 23.9979 77.1083 23.4927 78.1153 22.5664C79.3741 21.3875 80.6328 19.4508 81.8076 16.9246L85.2482 9.43034L82.395 9.34613Z" fill="white"/>
</g>
</g>
<defs>
<clipPath id="clip0_8004_266">
<rect width="85" height="24" fill="white"/>
</clipPath>
<clipPath id="clip1_8004_266">
<rect width="85" height="24" fill="white" transform="translate(0.5)"/>
</clipPath>
</defs>
</svg>
