<svg width="230" height="110" viewBox="0 0 230 110" fill="none" xmlns="http://www.w3.org/2000/svg">
<path d="M22.0268 19.6878H16.2508L15.1868 22.6328H13.3628L18.1508 9.46581H20.1458L24.9148 22.6328H23.0908L22.0268 19.6878ZM21.5328 18.2818L19.1388 11.5938L16.7448 18.2818H21.5328ZM30.8776 21.0368L34.1076 12.2208H35.9506L31.8656 22.6328H29.8516L25.7666 12.2208H27.6286L30.8776 21.0368ZM47.152 17.0278C47.152 17.3571 47.133 17.7055 47.095 18.0728H38.773C38.8363 19.0988 39.1846 19.9031 39.818 20.4858C40.464 21.0558 41.243 21.3408 42.155 21.3408C42.9023 21.3408 43.523 21.1698 44.017 20.8278C44.5236 20.4731 44.8783 20.0045 45.081 19.4218H46.943C46.6643 20.4225 46.107 21.2395 45.271 21.8728C44.435 22.4935 43.3963 22.8038 42.155 22.8038C41.167 22.8038 40.2803 22.5821 39.495 22.1388C38.7223 21.6955 38.1143 21.0685 37.671 20.2578C37.2276 19.4345 37.006 18.4845 37.006 17.4078C37.006 16.3311 37.2213 15.3875 37.652 14.5768C38.0826 13.7661 38.6843 13.1455 39.457 12.7148C40.2423 12.2715 41.1416 12.0498 42.155 12.0498C43.143 12.0498 44.017 12.2651 44.777 12.6958C45.537 13.1265 46.1196 13.7218 46.525 14.4818C46.943 15.2291 47.152 16.0778 47.152 17.0278ZM45.366 16.6668C45.366 16.0081 45.2203 15.4445 44.929 14.9758C44.6376 14.4945 44.2386 14.1335 43.732 13.8928C43.238 13.6395 42.687 13.5128 42.079 13.5128C41.205 13.5128 40.4576 13.7915 39.837 14.3488C39.229 14.9061 38.8806 15.6788 38.792 16.6668H45.366ZM51.1632 13.9118C51.4672 13.3165 51.8979 12.8541 52.4552 12.5248C53.0252 12.1955 53.7155 12.0308 54.5262 12.0308V13.8168H54.0702C52.1322 13.8168 51.1632 14.8681 51.1632 16.9708V22.6328H49.4342V12.2208H51.1632V13.9118ZM55.8761 17.3888C55.8761 16.3248 56.0914 15.3938 56.5221 14.5958C56.9527 13.7851 57.5417 13.1581 58.2891 12.7148C59.0491 12.2715 59.8914 12.0498 60.8161 12.0498C61.7281 12.0498 62.5197 12.2461 63.1911 12.6388C63.8624 13.0315 64.3627 13.5255 64.6921 14.1208V12.2208H66.4401V22.6328H64.6921V20.6948C64.3501 21.3028 63.8371 21.8095 63.1531 22.2148C62.4817 22.6075 61.6964 22.8038 60.7971 22.8038C59.8724 22.8038 59.0364 22.5758 58.2891 22.1198C57.5417 21.6638 56.9527 21.0241 56.5221 20.2008C56.0914 19.3775 55.8761 18.4401 55.8761 17.3888ZM64.6921 17.4078C64.6921 16.6225 64.5337 15.9385 64.2171 15.3558C63.9004 14.7731 63.4697 14.3298 62.9251 14.0258C62.3931 13.7091 61.8041 13.5508 61.1581 13.5508C60.5121 13.5508 59.9231 13.7028 59.3911 14.0068C58.8591 14.3108 58.4347 14.7541 58.1181 15.3368C57.8014 15.9195 57.6431 16.6035 57.6431 17.3888C57.6431 18.1868 57.8014 18.8835 58.1181 19.4788C58.4347 20.0615 58.8591 20.5111 59.3911 20.8278C59.9231 21.1318 60.5121 21.2838 61.1581 21.2838C61.8041 21.2838 62.3931 21.1318 62.9251 20.8278C63.4697 20.5111 63.9004 20.0615 64.2171 19.4788C64.5337 18.8835 64.6921 18.1931 64.6921 17.4078ZM73.6559 12.0498C74.5553 12.0498 75.3406 12.2461 76.0119 12.6388C76.6959 13.0315 77.2026 13.5255 77.5319 14.1208V12.2208H79.2799V22.8608C79.2799 23.8108 79.0773 24.6531 78.6719 25.3878C78.2666 26.1351 77.6839 26.7178 76.9239 27.1358C76.1766 27.5538 75.3026 27.7628 74.3019 27.7628C72.9339 27.7628 71.7939 27.4398 70.8819 26.7938C69.9699 26.1478 69.4316 25.2675 69.2669 24.1528H70.9769C71.1669 24.7861 71.5596 25.2928 72.1549 25.6728C72.7503 26.0655 73.4659 26.2618 74.3019 26.2618C75.2519 26.2618 76.0246 25.9641 76.6199 25.3688C77.2279 24.7735 77.5319 23.9375 77.5319 22.8608V20.6758C77.1899 21.2838 76.6833 21.7905 76.0119 22.1958C75.3406 22.6011 74.5553 22.8038 73.6559 22.8038C72.7313 22.8038 71.8889 22.5758 71.1289 22.1198C70.3816 21.6638 69.7926 21.0241 69.3619 20.2008C68.9313 19.3775 68.7159 18.4401 68.7159 17.3888C68.7159 16.3248 68.9313 15.3938 69.3619 14.5958C69.7926 13.7851 70.3816 13.1581 71.1289 12.7148C71.8889 12.2715 72.7313 12.0498 73.6559 12.0498ZM77.5319 17.4078C77.5319 16.6225 77.3736 15.9385 77.0569 15.3558C76.7403 14.7731 76.3096 14.3298 75.7649 14.0258C75.2329 13.7091 74.6439 13.5508 73.9979 13.5508C73.3519 13.5508 72.7629 13.7028 72.2309 14.0068C71.6989 14.3108 71.2746 14.7541 70.9579 15.3368C70.6413 15.9195 70.4829 16.6035 70.4829 17.3888C70.4829 18.1868 70.6413 18.8835 70.9579 19.4788C71.2746 20.0615 71.6989 20.5111 72.2309 20.8278C72.7629 21.1318 73.3519 21.2838 73.9979 21.2838C74.6439 21.2838 75.2329 21.1318 75.7649 20.8278C76.3096 20.5111 76.7403 20.0615 77.0569 19.4788C77.3736 18.8835 77.5319 18.1931 77.5319 17.4078ZM91.7018 17.0278C91.7018 17.3571 91.6828 17.7055 91.6448 18.0728H83.3228C83.3861 19.0988 83.7344 19.9031 84.3678 20.4858C85.0138 21.0558 85.7928 21.3408 86.7048 21.3408C87.4521 21.3408 88.0728 21.1698 88.5668 20.8278C89.0734 20.4731 89.4281 20.0045 89.6308 19.4218H91.4928C91.2141 20.4225 90.6568 21.2395 89.8208 21.8728C88.9848 22.4935 87.9461 22.8038 86.7048 22.8038C85.7168 22.8038 84.8301 22.5821 84.0448 22.1388C83.2721 21.6955 82.6641 21.0685 82.2208 20.2578C81.7774 19.4345 81.5558 18.4845 81.5558 17.4078C81.5558 16.3311 81.7711 15.3875 82.2018 14.5768C82.6324 13.7661 83.2341 13.1455 84.0068 12.7148C84.7921 12.2715 85.6914 12.0498 86.7048 12.0498C87.6928 12.0498 88.5668 12.2651 89.3268 12.6958C90.0868 13.1265 90.6694 13.7218 91.0748 14.4818C91.4928 15.2291 91.7018 16.0778 91.7018 17.0278ZM89.9158 16.6668C89.9158 16.0081 89.7701 15.4445 89.4788 14.9758C89.1874 14.4945 88.7884 14.1335 88.2818 13.8928C87.7878 13.6395 87.2368 13.5128 86.6288 13.5128C85.7548 13.5128 85.0074 13.7915 84.3868 14.3488C83.7788 14.9061 83.4304 15.6788 83.3418 16.6668H89.9158ZM102.735 22.8038C101.937 22.8038 101.222 22.6708 100.588 22.4048C99.9551 22.1261 99.4548 21.7461 99.0874 21.2648C98.7201 20.7708 98.5174 20.2071 98.4794 19.5738H100.265C100.316 20.0931 100.557 20.5175 100.987 20.8468C101.431 21.1761 102.007 21.3408 102.716 21.3408C103.375 21.3408 103.894 21.1951 104.274 20.9038C104.654 20.6125 104.844 20.2451 104.844 19.8018C104.844 19.3458 104.642 19.0101 104.236 18.7948C103.831 18.5668 103.204 18.3451 102.355 18.1298C101.583 17.9271 100.949 17.7245 100.455 17.5218C99.9741 17.3065 99.5561 16.9961 99.2014 16.5908C98.8594 16.1728 98.6884 15.6281 98.6884 14.9568C98.6884 14.4248 98.8468 13.9371 99.1634 13.4938C99.4801 13.0505 99.9298 12.7021 100.512 12.4488C101.095 12.1828 101.76 12.0498 102.507 12.0498C103.66 12.0498 104.591 12.3411 105.3 12.9238C106.01 13.5065 106.39 14.3045 106.44 15.3178H104.711C104.673 14.7731 104.452 14.3361 104.046 14.0068C103.654 13.6775 103.122 13.5128 102.45 13.5128C101.83 13.5128 101.336 13.6458 100.968 13.9118C100.601 14.1778 100.417 14.5261 100.417 14.9568C100.417 15.2988 100.525 15.5838 100.74 15.8118C100.968 16.0271 101.247 16.2045 101.576 16.3438C101.918 16.4705 102.387 16.6161 102.982 16.7808C103.73 16.9835 104.338 17.1861 104.806 17.3888C105.275 17.5788 105.674 17.8701 106.003 18.2628C106.345 18.6555 106.523 19.1685 106.535 19.8018C106.535 20.3718 106.377 20.8848 106.06 21.3408C105.744 21.7968 105.294 22.1578 104.711 22.4238C104.141 22.6771 103.483 22.8038 102.735 22.8038ZM111.085 13.6458V19.7828C111.085 20.2895 111.193 20.6505 111.408 20.8658C111.624 21.0685 111.997 21.1698 112.529 21.1698H113.802V22.6328H112.244C111.282 22.6328 110.56 22.4111 110.078 21.9678C109.597 21.5245 109.356 20.7961 109.356 19.7828V13.6458H108.007V12.2208H109.356V9.59881H111.085V12.2208H113.802V13.6458H111.085ZM120.438 22.8038C119.463 22.8038 118.576 22.5821 117.778 22.1388C116.993 21.6955 116.372 21.0685 115.916 20.2578C115.473 19.4345 115.251 18.4845 115.251 17.4078C115.251 16.3438 115.479 15.4065 115.935 14.5958C116.404 13.7725 117.037 13.1455 117.835 12.7148C118.633 12.2715 119.526 12.0498 120.514 12.0498C121.502 12.0498 122.395 12.2715 123.193 12.7148C123.991 13.1455 124.618 13.7661 125.074 14.5768C125.543 15.3875 125.777 16.3311 125.777 17.4078C125.777 18.4845 125.536 19.4345 125.055 20.2578C124.586 21.0685 123.947 21.6955 123.136 22.1388C122.325 22.5821 121.426 22.8038 120.438 22.8038ZM120.438 21.2838C121.059 21.2838 121.641 21.1381 122.186 20.8468C122.731 20.5555 123.168 20.1185 123.497 19.5358C123.839 18.9531 124.01 18.2438 124.01 17.4078C124.01 16.5718 123.845 15.8625 123.516 15.2798C123.187 14.6971 122.756 14.2665 122.224 13.9878C121.692 13.6965 121.116 13.5508 120.495 13.5508C119.862 13.5508 119.279 13.6965 118.747 13.9878C118.228 14.2665 117.81 14.6971 117.493 15.2798C117.176 15.8625 117.018 16.5718 117.018 17.4078C117.018 18.2565 117.17 18.9721 117.474 19.5548C117.791 20.1375 118.209 20.5745 118.728 20.8658C119.247 21.1445 119.817 21.2838 120.438 21.2838ZM129.779 13.9118C130.083 13.3165 130.514 12.8541 131.071 12.5248C131.641 12.1955 132.332 12.0308 133.142 12.0308V13.8168H132.686C130.748 13.8168 129.779 14.8681 129.779 16.9708V22.6328H128.05V12.2208H129.779V13.9118ZM144.638 17.0278C144.638 17.3571 144.619 17.7055 144.581 18.0728H136.259C136.323 19.0988 136.671 19.9031 137.304 20.4858C137.95 21.0558 138.729 21.3408 139.641 21.3408C140.389 21.3408 141.009 21.1698 141.503 20.8278C142.01 20.4731 142.365 20.0045 142.567 19.4218H144.429C144.151 20.4225 143.593 21.2395 142.757 21.8728C141.921 22.4935 140.883 22.8038 139.641 22.8038C138.653 22.8038 137.767 22.5821 136.981 22.1388C136.209 21.6955 135.601 21.0685 135.157 20.2578C134.714 19.4345 134.492 18.4845 134.492 17.4078C134.492 16.3311 134.708 15.3875 135.138 14.5768C135.569 13.7661 136.171 13.1455 136.943 12.7148C137.729 12.2715 138.628 12.0498 139.641 12.0498C140.629 12.0498 141.503 12.2651 142.263 12.6958C143.023 13.1265 143.606 13.7218 144.011 14.4818C144.429 15.2291 144.638 16.0778 144.638 17.0278ZM142.852 16.6668C142.852 16.0081 142.707 15.4445 142.415 14.9758C142.124 14.4945 141.725 14.1335 141.218 13.8928C140.724 13.6395 140.173 13.5128 139.565 13.5128C138.691 13.5128 137.944 13.7915 137.323 14.3488C136.715 14.9061 136.367 15.6788 136.278 16.6668H142.852ZM156.28 12.0498C157.179 12.0498 157.965 12.2461 158.636 12.6388C159.32 13.0315 159.827 13.5255 160.156 14.1208V12.2208H161.904V22.8608C161.904 23.8108 161.701 24.6531 161.296 25.3878C160.891 26.1351 160.308 26.7178 159.548 27.1358C158.801 27.5538 157.927 27.7628 156.926 27.7628C155.558 27.7628 154.418 27.4398 153.506 26.7938C152.594 26.1478 152.056 25.2675 151.891 24.1528H153.601C153.791 24.7861 154.184 25.2928 154.779 25.6728C155.374 26.0655 156.09 26.2618 156.926 26.2618C157.876 26.2618 158.649 25.9641 159.244 25.3688C159.852 24.7735 160.156 23.9375 160.156 22.8608V20.6758C159.814 21.2838 159.307 21.7905 158.636 22.1958C157.965 22.6011 157.179 22.8038 156.28 22.8038C155.355 22.8038 154.513 22.5758 153.753 22.1198C153.006 21.6638 152.417 21.0241 151.986 20.2008C151.555 19.3775 151.34 18.4401 151.34 17.3888C151.34 16.3248 151.555 15.3938 151.986 14.5958C152.417 13.7851 153.006 13.1581 153.753 12.7148C154.513 12.2715 155.355 12.0498 156.28 12.0498ZM160.156 17.4078C160.156 16.6225 159.998 15.9385 159.681 15.3558C159.364 14.7731 158.934 14.3298 158.389 14.0258C157.857 13.7091 157.268 13.5508 156.622 13.5508C155.976 13.5508 155.387 13.7028 154.855 14.0068C154.323 14.3108 153.899 14.7541 153.582 15.3368C153.265 15.9195 153.107 16.6035 153.107 17.3888C153.107 18.1868 153.265 18.8835 153.582 19.4788C153.899 20.0615 154.323 20.5111 154.855 20.8278C155.387 21.1318 155.976 21.2838 156.622 21.2838C157.268 21.2838 157.857 21.1318 158.389 20.8278C158.934 20.5111 159.364 20.0615 159.681 19.4788C159.998 18.8835 160.156 18.1931 160.156 17.4078ZM166.555 13.9118C166.859 13.3165 167.289 12.8541 167.847 12.5248C168.417 12.1955 169.107 12.0308 169.918 12.0308V13.8168H169.462C167.524 13.8168 166.555 14.8681 166.555 16.9708V22.6328H164.826V12.2208H166.555V13.9118ZM176.455 22.8038C175.479 22.8038 174.593 22.5821 173.795 22.1388C173.009 21.6955 172.389 21.0685 171.933 20.2578C171.489 19.4345 171.268 18.4845 171.268 17.4078C171.268 16.3438 171.496 15.4065 171.952 14.5958C172.42 13.7725 173.054 13.1455 173.852 12.7148C174.65 12.2715 175.543 12.0498 176.531 12.0498C177.519 12.0498 178.412 12.2715 179.21 12.7148C180.008 13.1455 180.635 13.7661 181.091 14.5768C181.559 15.3875 181.794 16.3311 181.794 17.4078C181.794 18.4845 181.553 19.4345 181.072 20.2578C180.603 21.0685 179.963 21.6955 179.153 22.1388C178.342 22.5821 177.443 22.8038 176.455 22.8038ZM176.455 21.2838C177.075 21.2838 177.658 21.1381 178.203 20.8468C178.747 20.5555 179.184 20.1185 179.514 19.5358C179.856 18.9531 180.027 18.2438 180.027 17.4078C180.027 16.5718 179.862 15.8625 179.533 15.2798C179.203 14.6971 178.773 14.2665 178.241 13.9878C177.709 13.6965 177.132 13.5508 176.512 13.5508C175.878 13.5508 175.296 13.6965 174.764 13.9878C174.244 14.2665 173.826 14.6971 173.51 15.2798C173.193 15.8625 173.035 16.5718 173.035 17.4078C173.035 18.2565 173.187 18.9721 173.491 19.5548C173.807 20.1375 174.225 20.5745 174.745 20.8658C175.264 21.1445 175.834 21.2838 176.455 21.2838ZM197.937 12.2208L194.688 22.6328H192.902L190.394 14.3678L187.886 22.6328H186.1L182.832 12.2208H184.599L186.993 20.9608L189.577 12.2208H191.344L193.871 20.9798L196.227 12.2208H197.937ZM201.762 13.6458V19.7828C201.762 20.2895 201.87 20.6505 202.085 20.8658C202.3 21.0685 202.674 21.1698 203.206 21.1698H204.479V22.6328H202.921C201.958 22.6328 201.236 22.4111 200.755 21.9678C200.274 21.5245 200.033 20.7961 200.033 19.7828V13.6458H198.684V12.2208H200.033V9.59881H201.762V12.2208H204.479V13.6458H201.762ZM211.742 12.0308C212.527 12.0308 213.237 12.2018 213.87 12.5438C214.503 12.8731 214.997 13.3735 215.352 14.0448C215.719 14.7161 215.903 15.5331 215.903 16.4958V22.6328H214.193V16.7428C214.193 15.7041 213.933 14.9125 213.414 14.3678C212.895 13.8105 212.185 13.5318 211.286 13.5318C210.374 13.5318 209.646 13.8168 209.101 14.3868C208.569 14.9568 208.303 15.7865 208.303 16.8758V22.6328H206.574V8.57281H208.303V13.7028C208.645 13.1708 209.114 12.7591 209.709 12.4678C210.317 12.1765 210.995 12.0308 211.742 12.0308Z" fill="white"/>
<path d="M62.0535 87.6328V86.1828H66.7535V78.6828H52.8035V77.1828L67.4535 52.6328H73.0035V77.0328H77.5035V73.1328H78.9035V82.3828H77.5035V78.6828H72.9535V86.1828H76.4535V87.6328H62.0535ZM54.7535 77.0328H66.7535V56.8828L54.7535 77.0328ZM81.8832 70.0828C81.8832 57.0328 87.8832 52.0828 95.1332 52.0828C102.483 52.0828 108.333 56.9328 108.333 70.0828C108.333 83.2328 102.333 88.1328 95.1332 88.1328C86.1332 88.1328 81.8832 80.5328 81.8832 70.0828ZM88.5832 70.1828C88.5832 82.2828 90.0832 86.5828 95.1332 86.5828C100.283 86.5828 101.683 82.2328 101.683 70.2328C101.683 58.1828 100.033 53.6328 95.1332 53.6328C90.3332 53.6328 88.5832 58.2828 88.5832 70.1828ZM111.522 70.0828C111.522 57.0328 117.522 52.0828 124.772 52.0828C132.122 52.0828 137.972 56.9328 137.972 70.0828C137.972 83.2328 131.972 88.1328 124.772 88.1328C115.772 88.1328 111.522 80.5328 111.522 70.0828ZM118.222 70.1828C118.222 82.2828 119.722 86.5828 124.772 86.5828C129.922 86.5828 131.322 82.2328 131.322 70.2328C131.322 58.1828 129.672 53.6328 124.772 53.6328C119.972 53.6328 118.222 58.2828 118.222 70.1828ZM159.511 79.8828C159.511 74.4828 163.311 71.2328 167.711 71.2328C172.011 71.2328 175.661 73.7328 175.661 79.5328C175.661 85.3328 171.811 88.1328 167.561 88.1328C162.311 88.1328 159.511 84.7828 159.511 79.8828ZM163.911 79.8828C163.911 84.8328 164.961 87.0328 167.611 87.0328C170.461 87.0328 171.261 84.5828 171.261 79.6328C171.261 74.3328 170.161 72.3828 167.661 72.3828C165.061 72.3828 163.911 74.4828 163.911 79.8828ZM147.061 87.6328L168.111 52.6328H170.111L149.111 87.6328H147.061ZM141.611 60.7328C141.611 55.3328 145.411 52.0828 149.861 52.0828C154.111 52.0828 157.761 54.5828 157.761 60.3828C157.761 66.1828 153.911 68.9828 149.711 68.9828C144.411 68.9828 141.611 65.6328 141.611 60.7328ZM146.061 60.7328C146.061 65.6828 147.111 67.8828 149.761 67.8828C152.561 67.8828 153.361 65.4328 153.361 60.4828C153.361 55.1828 152.311 53.2328 149.811 53.2328C147.161 53.2328 146.061 55.3328 146.061 60.7328Z" fill="white"/>
</svg>
