<svg width="208" height="114" viewBox="0 0 208 114" fill="none" xmlns="http://www.w3.org/2000/svg">
<g clip-path="url(#clip0_4001_2412)">
<path d="M70.785 12.6031H84.958V15.2001H79.386V29.8021H76.32V15.2001H70.772V12.6021H70.784L70.785 12.6031ZM84.353 17.3481H86.973V19.7521H87.022C87.109 19.4121 87.269 19.0841 87.504 18.7681C88.0065 18.0908 88.6866 17.5657 89.469 17.2511C89.8664 17.0936 90.2896 17.0112 90.717 17.0081C91.037 17.0081 91.273 17.0201 91.397 17.0331C91.52 17.0451 91.643 17.0691 91.779 17.0811V19.7271C91.5783 19.6919 91.3766 19.6636 91.174 19.6421C90.9729 19.6183 90.7705 19.6062 90.568 19.6061C90.098 19.6061 89.654 19.7031 89.234 19.8861C88.814 20.0671 88.455 20.3461 88.147 20.6991C87.8184 21.0937 87.5667 21.5466 87.405 22.034C87.22 22.5681 87.133 23.1741 87.133 23.8671V29.7901H84.341V17.3481H84.353ZM104.618 29.8031H101.875V28.0671H101.825C101.479 28.6991 100.973 29.1971 100.293 29.5731C99.613 29.9491 98.921 30.1431 98.217 30.1431C96.549 30.1431 95.337 29.743 94.597 28.9291C93.855 28.1161 93.484 26.8901 93.484 25.2511V17.3491H96.277V24.9841C96.277 26.0771 96.487 26.8541 96.92 27.3031C97.34 27.7521 97.945 27.9831 98.711 27.9831C99.304 27.9831 99.786 27.8981 100.181 27.7151C100.577 27.5331 100.898 27.3031 101.133 26.9991C101.38 26.708 101.553 26.3441 101.665 25.9311C101.775 25.5181 101.825 25.0691 101.825 24.5841V17.3611H104.618V29.8031ZM109.375 25.8101C109.462 26.6101 109.77 27.1701 110.302 27.4971C110.845 27.8131 111.488 27.9831 112.242 27.9831C112.502 27.9831 112.798 27.9581 113.132 27.9221C113.465 27.8851 113.786 27.8001 114.071 27.6921C114.367 27.5821 114.601 27.4121 114.799 27.1941C114.985 26.9741 115.071 26.6961 115.059 26.3441C115.057 26.1807 115.021 26.0195 114.953 25.871C114.885 25.7224 114.787 25.5899 114.664 25.4821C114.416 25.2521 114.108 25.0821 113.724 24.9361C113.296 24.7878 112.858 24.6702 112.414 24.5841C111.92 24.4871 111.426 24.3771 110.92 24.2681C110.41 24.1578 109.907 24.0199 109.412 23.8551C108.948 23.7063 108.51 23.4853 108.115 23.2001C107.73 22.9313 107.416 22.573 107.2 22.1561C106.966 21.7311 106.854 21.2091 106.854 20.5781C106.854 19.8981 107.027 19.3401 107.361 18.8781C107.698 18.4199 108.133 18.0427 108.634 17.7741C109.173 17.4893 109.752 17.2887 110.351 17.1791C110.981 17.0701 111.587 17.0091 112.155 17.0091C112.81 17.0091 113.44 17.0821 114.034 17.2161C114.609 17.3392 115.157 17.5651 115.652 17.8831C116.134 18.1871 116.529 18.5871 116.851 19.0731C117.172 19.5581 117.37 20.1531 117.456 20.8451H114.54C114.404 20.1901 114.107 19.7411 113.626 19.5221C113.144 19.2921 112.588 19.1821 111.97 19.1821C111.772 19.1821 111.537 19.1941 111.266 19.2311C111.005 19.2658 110.748 19.3268 110.499 19.4131C110.272 19.4968 110.065 19.6292 109.894 19.8011C109.811 19.8907 109.746 19.9959 109.704 20.1105C109.662 20.2251 109.642 20.3469 109.647 20.4691C109.647 20.8091 109.77 21.0761 110.005 21.2821C110.24 21.4881 110.549 21.6581 110.932 21.8041C111.315 21.9381 111.748 22.0591 112.242 22.1561C112.736 22.2531 113.242 22.3621 113.762 22.4721C114.268 22.5811 114.762 22.7271 115.257 22.8841C115.751 23.0421 116.183 23.2611 116.567 23.5401C116.95 23.8191 117.259 24.159 117.493 24.5721C117.728 24.984 117.852 25.5061 117.852 26.1131C117.852 26.8531 117.679 27.4731 117.332 27.9951C116.987 28.5051 116.542 28.9291 115.998 29.2451C115.429 29.5731 114.811 29.8106 114.169 29.9491C113.515 30.0928 112.848 30.1659 112.179 30.1671C111.43 30.1755 110.682 30.0857 109.956 29.9001C109.276 29.7181 108.683 29.451 108.189 29.1C107.701 28.7453 107.299 28.2844 107.015 27.7521C106.731 27.2181 106.582 26.5741 106.558 25.8341H109.375V25.8101ZM118.593 17.35H120.706V13.6101H123.499V17.35H126.019V19.4001H123.5V26.0531C123.5 26.3431 123.512 26.5871 123.537 26.8051C123.561 27.0121 123.623 27.194 123.71 27.3391C123.805 27.4914 123.948 27.6071 124.117 27.6671C124.303 27.7401 124.537 27.7771 124.859 27.7771C125.056 27.7771 125.254 27.7771 125.452 27.7641C125.65 27.7521 125.847 27.7281 126.045 27.6791V29.8031C125.736 29.8401 125.427 29.8641 125.143 29.9001C124.844 29.9349 124.542 29.9512 124.241 29.9491C123.5 29.9491 122.907 29.8761 122.461 29.7431C122.017 29.6091 121.658 29.4031 121.411 29.1361C121.151 28.8691 120.991 28.5411 120.892 28.1401C120.796 27.6891 120.742 27.2301 120.732 26.7691V19.4231H118.619V17.3471H118.594L118.593 17.35ZM127.996 17.35H130.641V19.0361H130.691C131.085 18.3081 131.629 17.7981 132.333 17.4831C133.053 17.1631 133.833 17.0015 134.62 17.0091C135.62 17.0091 136.485 17.1791 137.227 17.5311C137.968 17.8711 138.586 18.3451 139.08 18.9511C139.574 19.5581 139.933 20.2621 140.18 21.0641C140.432 21.8983 140.557 22.7657 140.551 23.6371C140.551 24.4741 140.44 25.2871 140.217 26.0651C140.012 26.8155 139.673 27.5226 139.216 28.1521C138.767 28.7589 138.183 29.2535 137.511 29.5971C136.819 29.9611 136.016 30.1431 135.077 30.1431C134.667 30.1426 134.257 30.1058 133.853 30.0331C133.45 29.9604 133.057 29.8427 132.68 29.6821C132.306 29.5259 131.956 29.3172 131.641 29.0621C131.33 28.814 131.059 28.5196 130.838 28.1891H130.788V34.4041H127.996V17.3481V17.35ZM137.758 23.5881C137.759 23.0345 137.684 22.4835 137.536 21.9501C137.399 21.4446 137.173 20.9678 136.868 20.5421C136.579 20.137 136.203 19.801 135.769 19.5581C135.302 19.3059 134.779 19.1765 134.249 19.1821C133.075 19.1821 132.185 19.5821 131.592 20.3841C130.999 21.1851 130.702 22.2541 130.702 23.5881C130.702 24.2191 130.777 24.802 130.937 25.3361C131.097 25.8701 131.32 26.3321 131.641 26.7201C131.951 27.1091 132.321 27.4121 132.754 27.6301C133.186 27.8611 133.693 27.9701 134.261 27.9701C134.904 27.9701 135.435 27.8371 135.88 27.5821C136.311 27.3341 136.682 26.9944 136.967 26.5871C137.251 26.1741 137.462 25.7121 137.585 25.1911C137.699 24.6643 137.757 24.127 137.758 23.5881ZM142.688 12.6031H145.481V15.2011H142.688V12.6031ZM142.688 17.3491H145.481V29.8031H142.688V17.3491ZM147.977 12.6031H150.77V29.8031H147.977V12.6031ZM159.333 30.1431C158.319 30.1431 157.417 29.9731 156.627 29.6461C155.87 29.3354 155.184 28.8725 154.613 28.2861C154.058 27.6878 153.632 26.9809 153.364 26.2101C153.07 25.3592 152.924 24.4642 152.932 23.5641C152.932 22.6171 153.08 21.7441 153.364 20.9421C153.633 20.1716 154.058 19.4651 154.613 18.8671C155.156 18.284 155.836 17.8351 156.627 17.5071C157.417 17.1791 158.319 17.0091 159.333 17.0091C160.346 17.0091 161.248 17.1791 162.039 17.5071C162.83 17.8351 163.497 18.297 164.053 18.8671C164.608 19.4649 165.033 20.1715 165.301 20.9421C165.585 21.7431 165.733 22.6171 165.733 23.5641C165.733 24.5241 165.585 25.4091 165.301 26.2101C165.033 26.981 164.608 27.688 164.053 28.2861C163.509 28.8691 162.83 29.3181 162.039 29.6461C161.248 29.9731 160.346 30.1431 159.333 30.1431ZM159.333 27.9701C159.951 27.9701 160.494 27.8371 160.951 27.5821C161.396 27.3341 161.781 26.9897 162.076 26.5741C162.372 26.1621 162.582 25.6881 162.731 25.1661C162.867 24.6441 162.941 24.1101 162.941 23.5641C162.941 23.0301 162.867 22.5081 162.731 21.9741C162.604 21.4675 162.381 20.9897 162.076 20.5661C161.78 20.1544 161.396 19.8143 160.951 19.5711C160.494 19.3161 159.951 19.1821 159.333 19.1821C158.715 19.1821 158.171 19.3161 157.714 19.5711C157.272 19.818 156.889 20.1574 156.59 20.5661C156.289 20.9923 156.067 21.4692 155.935 21.9741C155.798 22.4931 155.727 23.0273 155.724 23.5641C155.724 24.1101 155.799 24.6441 155.935 25.1661C156.071 25.6881 156.293 26.1621 156.59 26.5741C156.886 26.9871 157.257 27.3271 157.714 27.5821C158.171 27.8491 158.715 27.9701 159.333 27.9701ZM166.549 17.35H168.662V13.6101H171.455V17.35H173.975V19.4001H171.455V26.0531C171.455 26.3431 171.467 26.5871 171.491 26.8051C171.516 27.0121 171.578 27.194 171.665 27.3391C171.759 27.4916 171.903 27.6073 172.072 27.6671C172.258 27.7401 172.492 27.7771 172.814 27.7771C173.011 27.7771 173.209 27.7771 173.407 27.7641C173.605 27.7521 173.802 27.7281 174 27.6791V29.8031C173.691 29.8401 173.382 29.8641 173.098 29.9001C172.799 29.9348 172.497 29.9512 172.196 29.9491C171.455 29.9491 170.861 29.8761 170.416 29.7431C169.972 29.6091 169.613 29.4031 169.366 29.1361C169.107 28.8691 168.946 28.5411 168.847 28.1401C168.751 27.6891 168.697 27.2301 168.687 26.7691V19.4231H166.574V17.3471H166.549V17.35Z" fill="white"/>
<path d="M67.523 12.6018H54.722L50.768 0.632812L46.8 12.6028L34 12.5898L44.367 19.9938L40.401 31.9498L50.768 24.5578L61.123 31.9498L57.169 19.9938L67.523 12.6018Z" fill="#B0B0B6"/>
<path d="M58.058 22.7016L57.168 19.9946L50.768 24.5586L58.058 22.7016Z" fill="#126849"/>
</g>
<path d="M1.91816 56.6328H26.9682L27.4682 66.1328H26.2682C24.9182 59.0328 22.0682 58.0828 15.9682 58.0828H11.9682V73.0328H14.3682C18.1682 73.0328 19.4682 71.4328 20.2682 66.6328H21.3682V81.4328H20.1682C19.2182 76.0828 18.1682 74.6328 13.8682 74.6328H11.9682V90.1828H16.4182C23.4182 90.1828 26.3682 87.5828 27.5682 81.1328H28.6182L28.2182 91.6328H1.91816V90.1828H5.61816V58.0828H1.91816V56.6328ZM45.6799 77.0328L51.9799 69.1328H48.2799V67.8328H56.4799V69.1328H53.9799L46.5799 78.3328L55.1299 90.3328H58.1299V91.6328H44.5299V90.3328H48.3299L42.4299 81.8328L35.9299 90.3328H39.9799V91.6328H31.3299V90.3328H33.9799L41.4799 80.4828L33.5299 69.1328H30.8299V67.8328H44.0799V69.1328H40.2799L45.6799 77.0328ZM70.81 68.5328C66.46 68.5328 64.56 71.6328 64.56 79.4828C64.56 87.0828 66.41 90.2828 70.91 90.2828C75.66 90.2828 77.26 86.6828 77.81 83.7828L79.21 84.0328C78.61 87.0328 77.06 92.1328 69.36 92.1328C62.26 92.1328 58.21 87.8328 58.21 80.1328C58.21 71.5828 63.11 67.3328 70.51 67.3328C76.06 67.3328 79.06 69.8328 79.06 73.6828C79.06 76.3828 77.66 77.5828 75.71 77.5828C73.81 77.5828 72.46 76.4328 72.46 74.2828C72.46 73.7828 72.51 73.1328 72.71 72.4328H74.11C74.26 71.9828 74.31 71.5328 74.31 71.1328C74.31 69.5828 73.26 68.5328 70.81 68.5328ZM82.0381 79.9328C82.0381 71.2328 87.1881 67.3328 93.9881 67.3328C100.638 67.3328 103.838 71.2328 103.538 78.7328H88.3881V79.7328C88.3881 86.6328 89.8881 90.3828 95.1881 90.3828C99.0881 90.3828 101.338 87.9828 102.188 84.3328L103.588 84.5328C102.688 88.6828 100.138 92.1328 93.5881 92.1328C85.6381 92.1328 82.0381 87.2328 82.0381 79.9328ZM88.4381 77.3828H97.5881C97.7881 71.4828 96.8881 68.5328 93.5381 68.5328C90.2381 68.5328 88.6381 71.2328 88.4381 77.3828ZM106.099 54.1328H115.599V90.3328H119.099V91.6328H106.149V90.3328H109.649V55.4328H106.099V54.1328ZM121.138 54.1328H130.638V90.3328H134.138V91.6328H121.188V90.3328H124.688V55.4328H121.138V54.1328ZM136.286 79.9328C136.286 71.2328 141.436 67.3328 148.236 67.3328C154.886 67.3328 158.086 71.2328 157.786 78.7328H142.636V79.7328C142.636 86.6328 144.136 90.3828 149.436 90.3828C153.336 90.3828 155.586 87.9828 156.436 84.3328L157.836 84.5328C156.936 88.6828 154.386 92.1328 147.836 92.1328C139.886 92.1328 136.286 87.2328 136.286 79.9328ZM142.686 77.3828H151.836C152.036 71.4828 151.136 68.5328 147.786 68.5328C144.486 68.5328 142.886 71.2328 142.686 77.3828ZM160.397 67.8328H169.797V72.4328C170.897 69.9828 173.297 67.3328 178.247 67.3328C182.847 67.3328 185.747 69.6328 185.747 75.6828V90.3328H189.297V91.6328H176.497V90.3328H179.847V74.9328C179.847 71.0828 178.997 69.4328 176.347 69.4328C172.897 69.4328 169.797 72.7328 169.797 77.2328V90.3328H173.197V91.6328H160.397V90.3328H163.897V69.1328H160.397V67.8328ZM192.795 85.7828V69.1328H189.295V67.8328H192.795V61.3828L198.695 59.8328V67.8328H205.595V69.1328H198.695V85.5328C198.695 88.4828 199.395 89.7828 201.745 89.7828C204.345 89.7828 205.595 87.8828 206.045 84.4828L207.245 84.6328C206.795 88.5328 205.295 92.1328 199.745 92.1328C195.695 92.1328 192.795 90.6828 192.795 85.7828Z" fill="white"/>
<defs>
<clipPath id="clip0_4001_2412">
<rect width="140" height="34" fill="white" transform="translate(34 0.632812)"/>
</clipPath>
</defs>
</svg>
